<svg width="172" height="43" viewBox="0 0 172 43" fill="none" xmlns="http://www.w3.org/2000/svg">
<path d="M9.58981 42.5833C6.4787 42.5833 4.10648 41.7083 2.47314 39.9583C0.839811 38.1694 0.0231446 35.6222 0.0231446 32.3167V10.85C0.0231446 7.54444 0.839811 5.01666 2.47314 3.26666C4.10648 1.47777 6.4787 0.583329 9.58981 0.583329C12.7009 0.583329 15.0731 1.47777 16.7065 3.26666C18.3398 5.01666 19.1565 7.54444 19.1565 10.85V14.35H13.0898V10.4417C13.0898 7.75833 11.9815 6.41666 9.76481 6.41666C7.54815 6.41666 6.43981 7.75833 6.43981 10.4417V32.7833C6.43981 35.4278 7.54815 36.75 9.76481 36.75C11.9815 36.75 13.0898 35.4278 13.0898 32.7833V24.7917H9.88148V18.9583H19.1565V32.3167C19.1565 35.6222 18.3398 38.1694 16.7065 39.9583C15.0731 41.7083 12.7009 42.5833 9.58981 42.5833ZM28.2346 1.16666H36.9263L43.5763 42H37.1596L35.9929 33.8917V34.0083H28.7013L27.5346 42H21.5846L28.2346 1.16666ZM35.2346 28.4667L32.3763 8.28333H32.2596L29.4596 28.4667H35.2346ZM46.6894 1.16666H55.8477L59.931 30.3917H60.0477L64.131 1.16666H73.2894V42H67.2227V11.0833H67.106L62.4394 42H57.0727L52.406 11.0833H52.2894V42H46.6894V1.16666ZM78.0777 1.16666H95.5777V7H84.4944V17.7917H93.3027V23.625H84.4944V36.1667H95.5777V42H78.0777V1.16666ZM99.2691 1.16666H116.244V7H105.686V18.375H113.969V24.2083H105.686V42H99.2691V1.16666ZM119.321 1.16666H125.738V36.1667H136.296V42H119.321V1.16666ZM139.373 1.16666H145.79V42H139.373V1.16666ZM156.254 21.1167L149.196 1.16666H155.962L160.279 14.35H160.396L164.829 1.16666H170.896L163.837 21.1167L171.246 42H164.479L159.812 27.7667H159.696L154.912 42H148.846L156.254 21.1167Z" fill="black"/>
</svg>