<svg width="65" height="101" viewBox="0 0 65 101" fill="none" xmlns="http://www.w3.org/2000/svg">
    <g id="Frame 22test 1" clip-path="url(#clip0_172_13)">
        <g id="Clip path group">
            <mask id="mask0_172_13" style="mask-type:luminance" maskUnits="userSpaceOnUse" x="0" y="0" width="65"
                height="101">
                <g id="clip0_172_2">
                    <path id="Vector" d="M64.3181 0.5H0.681763V100.5H64.3181V0.5Z" fill="white" />
                </g>
            </mask>
            <g mask="url(#mask0_172_13)">
                <g id="Group">
                    <g id="Clip path group_2">
                        <mask id="mask1_172_13" style="mask-type:luminance" maskUnits="userSpaceOnUse" x="0" y="0"
                            width="65" height="65">
                            <g id="clip1_172_2">
                                <path id="Vector_2"
                                    d="M0.681763 32.3182C0.681763 14.7455 14.9272 0.5 32.4999 0.5C50.0727 0.5 64.3181 14.7455 64.3181 32.3182V64.1364H0.681763V32.3182Z"
                                    fill="white" />
                            </g>
                        </mask>
                        <g mask="url(#mask1_172_13)">
                            <g id="Group_2">
                                <path id="Vector_3" d="M30.9848 0.5H0.681763V30.803H30.9848V0.5Z" fill="#E6C5C4" />
                                <path id="Vector_4" d="M30.9848 33.8335H0.681763V64.1365H30.9848V33.8335Z"
                                    fill="#E6C5C4" />
                                <path id="Vector_5" d="M64.3182 0.5H34.0151V30.803H64.3182V0.5Z" fill="#E6C5C4" />
                                <path id="Vector_6" d="M64.3182 33.8335H34.0151V64.1365H64.3182V33.8335Z"
                                    fill="#D9D9D9" />
                            </g>
                        </g>
                    </g>
                    <path id="Vector_7"
                        d="M5.07804 82.5305C3.94671 82.5305 3.08409 82.2124 2.49015 81.576C1.89621 80.9254 1.59924 79.9993 1.59924 78.7972V70.9911C1.59924 69.789 1.89621 68.8699 2.49015 68.2336C3.08409 67.583 3.94671 67.2578 5.07804 67.2578C6.20935 67.2578 7.07198 67.583 7.66592 68.2336C8.25986 68.8699 8.55683 69.789 8.55683 70.9911V72.2639H6.35077V70.8427C6.35077 69.8669 5.94774 69.379 5.14168 69.379C4.33562 69.379 3.93259 69.8669 3.93259 70.8427V78.9669C3.93259 79.9284 4.33562 80.4093 5.14168 80.4093C5.94774 80.4093 6.35077 79.9284 6.35077 78.9669V76.0608H5.1841V73.9396H8.55683V78.7972C8.55683 79.9993 8.25986 80.9254 7.66592 81.576C7.07198 82.2124 6.20935 82.5305 5.07804 82.5305ZM11.858 67.4699H15.0186L17.4367 82.3184H15.1034L14.6792 79.3699V79.4124H12.0276L11.6034 82.3184H9.43977L11.858 67.4699ZM14.4034 77.3972L13.364 70.0578H13.3216L12.3034 77.3972H14.4034ZM18.5688 67.4699H21.8991L23.3839 78.0972H23.4263L24.9112 67.4699H28.2415V82.3184H26.0354V71.076H25.993L24.296 82.3184H22.3445L20.6476 71.076H20.6051V82.3184H18.5688V67.4699ZM29.9827 67.4699H36.3463V69.5911H32.316V73.5154H35.519V75.6366H32.316V80.1972H36.3463V82.3184H29.9827V67.4699ZM37.6887 67.4699H43.8614V69.5911H40.022V73.7275H43.0342V75.8487H40.022V82.3184H37.6887V67.4699ZM44.9802 67.4699H47.3136V80.1972H51.153V82.3184H44.9802V67.4699ZM52.272 67.4699H54.6054V82.3184H52.272V67.4699ZM58.4105 74.7245L55.8439 67.4699H58.3045L59.8742 72.2639H59.9166L61.5287 67.4699H63.7348L61.1681 74.7245L63.862 82.3184H61.4014L59.7045 77.1427H59.662L57.9226 82.3184H55.7166L58.4105 74.7245Z"
                        fill="black" />
                    <path id="Vector_8"
                        d="M20.6715 85.0455H22.1988C22.6958 85.0455 23.0685 85.1788 23.317 85.4455C23.5654 85.7122 23.6897 86.1031 23.6897 86.6182V89.8364C23.6897 90.3516 23.5654 90.7425 23.317 91.0091C23.0685 91.2758 22.6958 91.4091 22.1988 91.4091H20.6715V85.0455ZM22.1806 90.5C22.3442 90.5 22.4685 90.4516 22.5533 90.3546C22.6442 90.2576 22.6897 90.1 22.6897 89.8819V86.5728C22.6897 86.3546 22.6442 86.197 22.5533 86.1C22.4685 86.0031 22.3442 85.9546 22.1806 85.9546H21.6715V90.5H22.1806ZM25.1197 85.0455H26.4742L27.5106 91.4091H26.5106L26.3288 90.1455V90.1637H25.1924L25.0106 91.4091H24.0833L25.1197 85.0455ZM26.2106 89.3L25.7651 86.1546H25.7469L25.3106 89.3H26.2106ZM28.3603 85.9546H27.3148V85.0455H30.4058V85.9546H29.3603V91.4091H28.3603V85.9546ZM31.2454 85.0455H32.5999L33.6363 91.4091H32.6363L32.4544 90.1455V90.1637H31.3181L31.1363 91.4091H30.209L31.2454 85.0455ZM32.3363 89.3L31.8908 86.1546H31.8726L31.4363 89.3H32.3363ZM34.1214 85.0455H35.6305C36.1457 85.0455 36.5214 85.1667 36.7578 85.4091C36.9941 85.6455 37.1123 86.0122 37.1123 86.5091V86.7637C37.1123 87.0909 37.0578 87.3576 36.9487 87.5637C36.8457 87.7697 36.6851 87.9182 36.4669 88.0091V88.0273C36.9638 88.197 37.2123 88.6394 37.2123 89.3546V89.9C37.2123 90.391 37.082 90.7667 36.8214 91.0273C36.5669 91.2819 36.1911 91.4091 35.6941 91.4091H34.1214V85.0455ZM35.5123 87.6364C35.7123 87.6364 35.8608 87.5849 35.9578 87.4819C36.0608 87.3788 36.1123 87.2061 36.1123 86.9637V86.6091C36.1123 86.3788 36.0699 86.2122 35.9851 86.1091C35.9063 86.0061 35.779 85.9546 35.6032 85.9546H35.1214V87.6364H35.5123ZM35.6941 90.5C35.8699 90.5 36.0002 90.4546 36.0851 90.3637C36.1699 90.2667 36.2123 90.1031 36.2123 89.8728V89.3182C36.2123 89.0273 36.1608 88.8273 36.0578 88.7182C35.9608 88.6031 35.7972 88.5455 35.5669 88.5455H35.1214V90.5H35.6941ZM38.5696 85.0455H39.9241L40.9605 91.4091H39.9605L39.7787 90.1455V90.1637H38.6423L38.4605 91.4091H37.5332L38.5696 85.0455ZM39.6605 89.3L39.2151 86.1546H39.1969L38.7605 89.3H39.6605ZM42.719 91.5C42.2341 91.5 41.8675 91.3637 41.619 91.091C41.3705 90.8122 41.2463 90.4152 41.2463 89.9V89.5364H42.1917V89.9728C42.1917 90.3849 42.3644 90.5909 42.7099 90.5909C42.8796 90.5909 43.0069 90.5425 43.0917 90.4455C43.1826 90.3425 43.2281 90.1788 43.2281 89.9546C43.2281 89.6879 43.1675 89.4546 43.0463 89.2546C42.9251 89.0485 42.7008 88.8031 42.3735 88.5182C41.9614 88.1546 41.6735 87.8273 41.5099 87.5364C41.3463 87.2394 41.2644 86.9061 41.2644 86.5364C41.2644 86.0334 41.3917 85.6455 41.6463 85.3728C41.9008 85.094 42.2705 84.9546 42.7554 84.9546C43.2341 84.9546 43.5947 85.094 43.8372 85.3728C44.0857 85.6455 44.2099 86.0394 44.2099 86.5546V86.8182H43.2644V86.491C43.2644 86.2728 43.222 86.1152 43.1372 86.0182C43.0523 85.9152 42.9281 85.8637 42.7644 85.8637C42.4311 85.8637 42.2644 86.0667 42.2644 86.4728C42.2644 86.7031 42.3251 86.9182 42.4463 87.1182C42.5735 87.3182 42.8008 87.5606 43.1281 87.8455C43.5463 88.2091 43.8341 88.5394 43.9917 88.8364C44.1493 89.1334 44.2281 89.4819 44.2281 89.8819C44.2281 90.4031 44.0978 90.8031 43.8372 91.0819C43.5826 91.3606 43.2099 91.5 42.719 91.5ZM44.8014 85.0455H47.5287V85.9546H45.8014V87.6364H47.1741V88.5455H45.8014V90.5H47.5287V91.4091H44.8014V85.0455Z"
                        fill="black" />
                </g>
            </g>
        </g>
    </g>
    <defs>
        <clipPath id="clip0_172_13">
            <rect width="63.6364" height="100" fill="white" transform="translate(0.681763 0.5)" />
        </clipPath>
    </defs>
</svg>