<svg width="21" height="33" viewBox="0 0 21 33" fill="none" xmlns="http://www.w3.org/2000/svg">
<g clip-path="url(#clip0_172_2)">
<g clip-path="url(#clip1_172_2)">
<rect width="10" height="10" fill="#E6C5C4"/>
<rect y="11" width="10" height="10" fill="#E6C5C4"/>
<rect x="11" width="10" height="10" fill="#E6C5C4"/>
<rect x="11" y="11" width="10" height="10" fill="#D9D9D9"/>
</g>
<path d="M1.45078 27.07C1.07744 27.07 0.792776 26.965 0.596776 26.755C0.400776 26.5403 0.302776 26.2347 0.302776 25.838V23.262C0.302776 22.8653 0.400776 22.562 0.596776 22.352C0.792776 22.1373 1.07744 22.03 1.45078 22.03C1.82411 22.03 2.10878 22.1373 2.30478 22.352C2.50078 22.562 2.59878 22.8653 2.59878 23.262V23.682H1.87078V23.213C1.87078 22.891 1.73778 22.73 1.47178 22.73C1.20578 22.73 1.07278 22.891 1.07278 23.213V25.894C1.07278 26.2113 1.20578 26.37 1.47178 26.37C1.73778 26.37 1.87078 26.2113 1.87078 25.894V24.935H1.48578V24.235H2.59878V25.838C2.59878 26.2347 2.50078 26.5403 2.30478 26.755C2.10878 26.965 1.82411 27.07 1.45078 27.07ZM3.68815 22.1H4.73115L5.52915 27H4.75915L4.61915 26.027V26.041H3.74415L3.60415 27H2.89015L3.68815 22.1ZM4.52815 25.376L4.18515 22.954H4.17115L3.83515 25.376H4.52815ZM5.90272 22.1H7.00172L7.49172 25.607H7.50572L7.99572 22.1H9.09472V27H8.36672V23.29H8.35272L7.79272 27H7.14872L6.58872 23.29H6.57472V27H5.90272V22.1ZM9.66932 22.1H11.7693V22.8H10.4393V24.095H11.4963V24.795H10.4393V26.3H11.7693V27H9.66932V22.1ZM12.2123 22.1H14.2493V22.8H12.9823V24.165H13.9763V24.865H12.9823V27H12.2123V22.1ZM14.6185 22.1H15.3885V26.3H16.6555V27H14.6185V22.1ZM17.0248 22.1H17.7948V27H17.0248V22.1ZM19.0505 24.494L18.2035 22.1H19.0155L19.5335 23.682H19.5475L20.0795 22.1H20.8075L19.9605 24.494L20.8495 27H20.0375L19.4775 25.292H19.4635L18.8895 27H18.1615L19.0505 24.494Z" fill="black"/>
<path d="M6.59663 27.9H7.10063C7.26463 27.9 7.38763 27.944 7.46963 28.032C7.55163 28.12 7.59263 28.249 7.59263 28.419V29.481C7.59263 29.651 7.55163 29.78 7.46963 29.868C7.38763 29.956 7.26463 30 7.10063 30H6.59663V27.9ZM7.09463 29.7C7.14863 29.7 7.18963 29.684 7.21763 29.652C7.24763 29.62 7.26263 29.568 7.26263 29.496V28.404C7.26263 28.332 7.24763 28.28 7.21763 28.248C7.18963 28.216 7.14863 28.2 7.09463 28.2H6.92663V29.7H7.09463ZM8.06452 27.9H8.51152L8.85352 30H8.52352L8.46352 29.583V29.589H8.08852L8.02852 30H7.72252L8.06452 27.9ZM8.42452 29.304L8.27752 28.266H8.27152L8.12752 29.304H8.42452ZM9.13393 28.2H8.78893V27.9H9.80893V28.2H9.46393V30H9.13393V28.2ZM10.086 27.9H10.533L10.875 30H10.545L10.485 29.583V29.589H10.11L10.05 30H9.74401L10.086 27.9ZM10.446 29.304L10.299 28.266H10.293L10.149 29.304H10.446ZM11.0351 27.9H11.5331C11.7031 27.9 11.8271 27.94 11.9051 28.02C11.9831 28.098 12.0221 28.219 12.0221 28.383V28.467C12.0221 28.575 12.0041 28.663 11.9681 28.731C11.9341 28.799 11.8811 28.848 11.8091 28.878V28.884C11.9731 28.94 12.0551 29.086 12.0551 29.322V29.502C12.0551 29.664 12.0121 29.788 11.9261 29.874C11.8421 29.958 11.7181 30 11.5541 30H11.0351V27.9ZM11.4941 28.755C11.5601 28.755 11.6091 28.738 11.6411 28.704C11.6751 28.67 11.6921 28.613 11.6921 28.533V28.416C11.6921 28.34 11.6781 28.285 11.6501 28.251C11.6241 28.217 11.5821 28.2 11.5241 28.2H11.3651V28.755H11.4941ZM11.5541 29.7C11.6121 29.7 11.6551 29.685 11.6831 29.655C11.7111 29.623 11.7251 29.569 11.7251 29.493V29.31C11.7251 29.214 11.7081 29.148 11.6741 29.112C11.6421 29.074 11.5881 29.055 11.5121 29.055H11.3651V29.7H11.5541ZM12.503 27.9H12.95L13.292 30H12.962L12.902 29.583V29.589H12.527L12.467 30H12.161L12.503 27.9ZM12.863 29.304L12.716 28.266H12.71L12.566 29.304H12.863ZM13.8723 30.03C13.7123 30.03 13.5913 29.985 13.5093 29.895C13.4273 29.803 13.3863 29.672 13.3863 29.502V29.382H13.6983V29.526C13.6983 29.662 13.7553 29.73 13.8693 29.73C13.9253 29.73 13.9673 29.714 13.9953 29.682C14.0253 29.648 14.0403 29.594 14.0403 29.52C14.0403 29.432 14.0203 29.355 13.9803 29.289C13.9403 29.221 13.8663 29.14 13.7583 29.046C13.6223 28.926 13.5273 28.818 13.4733 28.722C13.4193 28.624 13.3923 28.514 13.3923 28.392C13.3923 28.226 13.4343 28.098 13.5183 28.008C13.6023 27.916 13.7243 27.87 13.8843 27.87C14.0423 27.87 14.1613 27.916 14.2413 28.008C14.3233 28.098 14.3643 28.228 14.3643 28.398V28.485H14.0523V28.377C14.0523 28.305 14.0383 28.253 14.0103 28.221C13.9823 28.187 13.9413 28.17 13.8873 28.17C13.7773 28.17 13.7223 28.237 13.7223 28.371C13.7223 28.447 13.7423 28.518 13.7823 28.584C13.8243 28.65 13.8993 28.73 14.0073 28.824C14.1453 28.944 14.2403 29.053 14.2923 29.151C14.3443 29.249 14.3703 29.364 14.3703 29.496C14.3703 29.668 14.3273 29.8 14.2413 29.892C14.1573 29.984 14.0343 30.03 13.8723 30.03ZM14.5595 27.9H15.4595V28.2H14.8895V28.755H15.3425V29.055H14.8895V29.7H15.4595V30H14.5595V27.9Z" fill="black"/>
</g>
<defs>
<clipPath id="clip0_172_2">
<rect width="21" height="33" fill="white"/>
</clipPath>
<clipPath id="clip1_172_2">
<path d="M0 10.5C0 4.70101 4.70101 0 10.5 0V0C16.299 0 21 4.70101 21 10.5V21H0L0 10.5Z" fill="white"/>
</clipPath>
</defs>
</svg>
